<?xml version="1.0" encoding="UTF-8"?><svg id="Layer_1" xmlns="http://www.w3.org/2000/svg" width="410.13" height="328.1" viewBox="0 0 410.13 328.1"><defs><style>.cls-1{fill:#fff;}.cls-2{fill:#b34140;}.cls-3{fill:#b24240;}.cls-4{fill:#d7999c;}</style></defs><path class="cls-1" d="m127.89,86.4c-.13-.1-1.23-.91-3.1-2.15.41-1.13.85-2.07,1.31-2.85.55,1.66,1.15,3.32,1.79,5Z"/><path class="cls-4" d="m157.31,81.07s-6.31-14.51,17.98-19.55c24.29-5.05,37.4,29.91,37.4,29.91,0,0,16.65-56.47,49.22-26.06,0,0,39.1-6.52,26.07,41.26,0,0,30.4-9.04,47.7,1.77,9.07-12,28.01-43.82,5.59-77.68-1.59-2.4-4.34-3.8-7.21-3.67-3.22.14-7.36,1.53-10.79,6.65.22-.57,5.81-14.64-1.91-16.63s-37.83-7.04-77.17,35c0,0-.77-46.66-37.03-52.06,0,0-11.18-1.16-20.05,13.11,0,0-10.03-8.1-25.84-5.01-15.14,2.95-26.39,36.27-14.14,73.28,4.35-7.45,10.18-.33,10.18-.33Z"/><path class="cls-4" d="m336.53,161.54c-15.08,14.5-40.65,11.06-41.3,10.98.62.44,26.85,19.97,8.55,49.08-1.03,1.63-3.26,1.99-4.71.72l-3.13-2.74v5.72c0,1.36-.88,2.57-2.19,2.97-9.95,3.04-51.27,12.53-70.93-31.86,0,0-48.5,31.13-56.47-2.89,0,0-43.43-11.59,2.9-47.06,0,0-28.97-16.8-26.13-48.03.59-6.5,1.55-11.05,2.7-14.17-9.43-6.26-38.79-23.39-66.08-14.99-5.89,1.81-10.84,5.87-13.71,11.33-4.17,7.95-7.81,20.39,3.45,28.95,0,0-17.75-2.32-8.49,22.75s32.4,57.08,70.97,56.31c0,0-22.76,52.07,3.85,69.04,0,0,9.64,8.1,25.07-1.54,0,0-.38,11.57,18.13,13.11,18.51,1.54,50.91-27.38,52.07-53.61,0,0,17.74,27.38,57.85,25.46,40.11-1.93,59.01-29.7,51.29-38.96,0,0,11.37,1.21,9.26-13.14-1.8-12.21-4.2-20.14-12.95-27.43Z"/><path class="cls-2" d="m228.03,168.56s13.27-10.76,21.52-10.76c0,0-15.78-3.23-1.08-15.42,0,0-9.68,3.59-14.7,7.53,0,0-9.68-12.55-11.47-15.06,0,0,1.05,12.36-.2,12.99s-6.25,3.96-10,4.79c0,0,16.24,11.87,15.93,15.93Z"/><path class="cls-3" d="m22.34,309.01c-.1.52-.2,1.12-.29,1.82s-.19,1.45-.28,2.27h-.69c-2.43,0-4.6-.27-6.5-.81-1.9-.54-3.51-1.35-4.84-2.45-1.04-.84-1.84-1.83-2.4-2.95s-.85-2.43-.85-3.89c0-1.37.28-2.6.84-3.7.56-1.1,1.35-2.06,2.37-2.89,1.31-1.1,2.94-1.94,4.89-2.51,1.95-.57,4.03-.86,6.24-.86h.7c.05.42.11,1,.2,1.75.08.75.19,1.53.33,2.35h-.67c-.83,0-1.83.09-3,.27s-2.19.46-3.06.83c-1.18.51-2.11,1.17-2.79,1.99s-1.02,1.75-1.02,2.81.32,2,.97,2.82,1.57,1.48,2.78,2c.9.42,1.95.72,3.14.9,1.2.18,2.21.27,3.05.27h.88Z"/><path class="cls-3" d="m39.93,305.36c0,1.13-.21,2.21-.64,3.25s-1.07,1.93-1.92,2.7c-.71.64-1.52,1.13-2.43,1.44-.91.32-1.9.48-2.97.48s-2.03-.16-2.96-.48c-.93-.32-1.75-.79-2.46-1.43-.82-.73-1.45-1.62-1.9-2.67-.45-1.04-.67-2.15-.67-3.33s.19-2.2.57-3.14.97-1.8,1.77-2.57c.72-.7,1.56-1.24,2.53-1.6s2-.54,3.1-.54,2.13.17,3.06.5,1.76.84,2.5,1.54c.81.77,1.42,1.64,1.82,2.62s.6,2.05.6,3.23Zm-4.47.06c0-.69-.11-1.38-.32-2.07s-.55-1.25-1.02-1.71c-.27-.27-.6-.48-.98-.62s-.78-.21-1.19-.21c-.49,0-.91.08-1.27.23-.36.15-.7.4-1.03.75-.39.4-.69.93-.9,1.58s-.31,1.31-.31,1.96c0,.76.1,1.46.31,2.1s.56,1.19,1.06,1.66c.27.27.6.48.97.61.37.13.76.2,1.17.2s.84-.08,1.24-.23c.39-.16.73-.38,1.02-.67.4-.43.71-.96.92-1.6s.32-1.29.32-1.98Z"/><path class="cls-3" d="m57.7,305c0,1.51-.34,2.79-1.03,3.82-.69,1.04-1.61,1.87-2.78,2.5-.92.5-1.96.86-3.11,1.09-1.16.23-2.25.34-3.29.34l.04,6.72h-4.5c0-.46,0-1.83.02-4.11.01-2.28.02-4.79.02-7.54,0-1.32,0-2.86-.01-4.63s-.02-3.57-.03-5.41c.36,0,.79-.02,1.29-.02.5,0,.87,0,1.13,0,1.91,0,3.48.09,4.71.26s2.42.52,3.58,1.06c1.27.59,2.25,1.39,2.93,2.42s1.03,2.19,1.03,3.48Zm-4.51.26c0-.72-.16-1.37-.49-1.94-.33-.57-.77-1.02-1.33-1.35-.51-.29-1.06-.5-1.66-.62-.6-.12-1.25-.18-1.94-.18h-.44c0,.18,0,.66-.01,1.46,0,.8-.01,1.97-.01,3.52,0,.49,0,1.15,0,1.97,0,.83,0,1.39,0,1.71.64,0,1.31-.07,1.99-.2.68-.13,1.23-.31,1.65-.53.73-.39,1.29-.89,1.67-1.49.38-.6.57-1.38.57-2.34Z"/><path class="cls-3" d="m74.17,305.34h-10.17c0,.75.22,1.45.64,2.09.41.64,1.05,1.16,1.9,1.56.6.26,1.22.45,1.88.56.66.11,1.38.17,2.17.17.62,0,1.17,0,1.63-.03s.8-.03,1.01-.04l-.45,3.21c-.21.02-.55.04-1.03.07-.48.02-1.04.04-1.66.04-1.7,0-3.21-.19-4.53-.56-1.32-.38-2.45-.95-3.38-1.71-.78-.64-1.41-1.44-1.89-2.39s-.72-1.99-.72-3.13.18-2.14.53-3.03.92-1.74,1.71-2.55c.65-.67,1.46-1.19,2.43-1.55s1.95-.54,2.94-.54c1.05,0,2,.15,2.83.45.83.3,1.54.75,2.14,1.34.7.7,1.22,1.55,1.54,2.54s.48,2.17.48,3.52Zm-4.2-1.96c-.09-.96-.38-1.72-.89-2.29s-1.19-.85-2.07-.85-1.57.28-2.12.84-.92,1.33-1.08,2.29h6.17Z"/><path class="cls-3" d="m91.64,312.82h-4.5c0-.3,0-1.05.02-2.23.01-1.19.02-2.13.02-2.82,0-.49,0-1.18,0-2.07,0-.89-.01-1.57-.02-2.03-.02-.9-.17-1.55-.46-1.96-.29-.4-.8-.61-1.53-.61-.49,0-1.06.12-1.72.37-.66.25-1.28.54-1.87.89,0,.06,0,.61,0,1.64,0,1.04,0,1.9,0,2.61,0,1.05,0,2.32.03,3.79s.03,2.28.03,2.42h-4.5c0-.22,0-.91.02-2.05.01-1.14.02-2.81.02-5,0-1.26,0-2.54-.01-3.84,0-1.3-.02-2.66-.03-4.07h4.41v1.39s0,.03,0,.03c.93-.52,1.91-.95,2.94-1.29s1.95-.51,2.74-.51c1.35,0,2.42.42,3.21,1.25.8.83,1.19,1.96,1.19,3.38,0,1.18,0,2.17-.02,2.95-.01.79-.02,1.45-.02,1.98,0,.91,0,2.02.03,3.35s.03,2.13.03,2.42Z"/><path class="cls-3" d="m110.27,312.82h-4.5c0-.4,0-1.34.02-2.82.01-1.48.02-2.48.02-3.01,0-.49,0-1.05-.01-1.68s-.01-1.18-.01-1.64c-.02-.94-.18-1.6-.48-1.99-.3-.38-.8-.58-1.52-.58-.47,0-1.03.12-1.68.36s-1.29.54-1.91.9l.04,10.46h-4.5c0-.7,0-2.12.02-4.24.01-2.12.02-4.46.02-7,0-1.33,0-2.86-.01-4.59,0-1.73-.02-3.62-.03-5.65h4.5l-.06,7.88h.03c.91-.48,1.88-.9,2.92-1.24,1.04-.34,1.94-.5,2.71-.5,1.35,0,2.42.42,3.21,1.25.8.83,1.19,1.96,1.19,3.38,0,1.18,0,2.17-.02,2.95-.01.79-.02,1.45-.02,1.98,0,.91,0,1.96.02,3.16.02,1.2.03,2.07.04,2.61Z"/><path class="cls-3" d="m126.9,305.04c0,2.39,0,4.23,0,5.53,0,1.3,0,2.05,0,2.25-.16.02-.79.07-1.9.14-1.11.07-2.29.11-3.54.11-.82,0-1.76-.07-2.8-.21-1.05-.14-1.93-.36-2.63-.66-.9-.39-1.6-.91-2.11-1.54s-.76-1.39-.76-2.25c0-.94.27-1.74.81-2.4.54-.66,1.39-1.21,2.54-1.64.77-.29,1.72-.52,2.86-.69s2.16-.28,3.08-.35c-.03-.53-.17-.96-.42-1.3-.25-.34-.67-.6-1.27-.78-.39-.13-.82-.22-1.3-.27-.47-.05-1.04-.08-1.69-.08-.6,0-1.1,0-1.52.03s-.87.04-1.36.06l.4-3.27c.2,0,.51-.02.94-.04.43-.02,1.04-.02,1.82-.02,1.65,0,3.03.14,4.12.42,1.1.28,2.02.75,2.78,1.4.69.6,1.2,1.32,1.52,2.17.32.85.48,1.98.48,3.37Zm-4.25,2.7v-1.09c0-.42,0-.85-.01-1.31-.28,0-.79.07-1.51.17-.72.1-1.37.28-1.93.52-.39.16-.75.4-1.08.73s-.49.74-.49,1.23c0,.55.14.98.43,1.3s.66.57,1.12.75c.33.12.71.21,1.13.26s.87.09,1.36.09c.13,0,.27,0,.44,0,.17,0,.34,0,.53,0,0-.13,0-.42,0-.89,0-.47,0-1.05,0-1.74Z"/><path class="cls-3" d="m144.35,297.79c0,.42,0,1.35-.02,2.78-.02,1.44-.02,2.86-.02,4.28,0,.91,0,1.93.01,3.06s.01,2.33.01,3.59c0,1.6-.31,2.92-.92,3.96-.61,1.04-1.5,1.84-2.66,2.42-1.3.63-2.75,1.07-4.36,1.3s-3.15.33-4.64.32l-.47-3.25c1.2-.03,2.29-.09,3.27-.18.98-.09,1.81-.25,2.5-.46.99-.31,1.68-.72,2.09-1.22s.62-1.09.63-1.79h-.56c-1.04,0-2.14-.14-3.32-.41-1.18-.27-2.16-.67-2.95-1.19-1.01-.63-1.8-1.42-2.37-2.35s-.86-2.12-.86-3.57c0-1.36.38-2.56,1.15-3.62.77-1.05,1.85-1.89,3.24-2.5.94-.42,2-.72,3.2-.9,1.2-.18,2.69-.27,4.47-.27.36,0,.78,0,1.25,0,.47,0,.9,0,1.3,0Zm-4.26,7.63c0-.53,0-1.17,0-1.93,0-.76-.01-1.54-.02-2.34h-.37c-.62,0-1.16.04-1.65.13-.48.09-1,.26-1.56.51-.72.32-1.28.8-1.67,1.44s-.59,1.36-.59,2.16.18,1.5.53,2.09.87,1.07,1.55,1.44c.46.23.98.42,1.57.56s1.2.21,1.83.21h.37c0-.12,0-.63,0-1.53,0-.9,0-1.82,0-2.75Z"/><path class="cls-3" d="m161.98,305.34h-10.17c0,.75.22,1.45.64,2.09.41.64,1.05,1.16,1.9,1.56.6.26,1.22.45,1.88.56.66.11,1.38.17,2.17.17.62,0,1.17,0,1.63-.03s.8-.03,1.01-.04l-.45,3.21c-.21.02-.55.04-1.03.07-.48.02-1.04.04-1.66.04-1.7,0-3.21-.19-4.53-.56-1.32-.38-2.45-.95-3.38-1.71-.78-.64-1.41-1.44-1.89-2.39s-.72-1.99-.72-3.13.18-2.14.53-3.03.92-1.74,1.71-2.55c.65-.67,1.46-1.19,2.43-1.55s1.95-.54,2.94-.54c1.05,0,2,.15,2.83.45.83.3,1.54.75,2.14,1.34.7.7,1.22,1.55,1.54,2.54s.48,2.17.48,3.52Zm-4.2-1.96c-.09-.96-.38-1.72-.89-2.29s-1.19-.85-2.07-.85-1.57.28-2.12.84-.92,1.33-1.08,2.29h6.17Z"/><path class="cls-3" d="m179.46,312.82h-4.5c0-.3,0-1.05.02-2.23.01-1.19.02-2.13.02-2.82,0-.49,0-1.18,0-2.07,0-.89-.01-1.57-.02-2.03-.02-.9-.17-1.55-.46-1.96-.29-.4-.8-.61-1.53-.61-.49,0-1.06.12-1.72.37-.66.25-1.28.54-1.87.89,0,.06,0,.61,0,1.64,0,1.04,0,1.9,0,2.61,0,1.05,0,2.32.03,3.79s.03,2.28.03,2.42h-4.5c0-.22,0-.91.02-2.05.01-1.14.02-2.81.02-5,0-1.26,0-2.54-.01-3.84,0-1.3-.02-2.66-.03-4.07h4.41v1.39s0,.03,0,.03c.93-.52,1.91-.95,2.94-1.29s1.95-.51,2.74-.51c1.35,0,2.42.42,3.21,1.25.8.83,1.19,1.96,1.19,3.38,0,1.18,0,2.17-.02,2.95-.01.79-.02,1.45-.02,1.98,0,.91,0,2.02.03,3.35s.03,2.13.03,2.42Z"/><path class="cls-3" d="m203.72,307.09c0,1.07-.28,2-.84,2.78-.56.78-1.33,1.42-2.29,1.93-.85.45-1.9.78-3.14,1-1.24.21-2.5.32-3.77.32-.92,0-1.74-.02-2.47-.05-.73-.04-1.21-.06-1.44-.08l-.44-3.94c.12.02.56.05,1.34.1.78.04,1.47.07,2.09.07.46,0,1.03-.04,1.71-.12s1.25-.19,1.71-.32c.62-.19,1.05-.42,1.3-.71.25-.29.37-.64.37-1.06,0-.47-.14-.86-.41-1.18-.27-.32-.74-.65-1.41-.99-.41-.21-.96-.46-1.66-.78s-1.3-.62-1.79-.94c-.96-.58-1.64-1.23-2.06-1.95-.42-.72-.62-1.52-.62-2.4,0-.75.15-1.43.46-2.03.31-.6.72-1.12,1.22-1.54.77-.7,1.82-1.25,3.15-1.63s2.9-.57,4.7-.57c.86,0,1.6.01,2.22.04.62.02,1.01.05,1.16.07l.5,3.94c-.24,0-.63-.04-1.16-.08-.53-.04-1.19-.07-1.98-.07-.55,0-1.07.04-1.57.12-.5.08-.98.2-1.44.35-.43.14-.77.34-1.02.62-.25.27-.37.61-.37,1,0,.36.14.7.41,1.02.27.32.75.66,1.44,1.02.45.22.97.47,1.58.75.6.27,1.19.58,1.76.91.93.55,1.62,1.19,2.08,1.92s.69,1.57.69,2.52Z"/><path class="cls-3" d="m219.68,305.04c0,2.39,0,4.23,0,5.53,0,1.3,0,2.05,0,2.25-.16.02-.79.07-1.9.14-1.11.07-2.29.11-3.54.11-.82,0-1.76-.07-2.8-.21-1.05-.14-1.93-.36-2.63-.66-.9-.39-1.6-.91-2.11-1.54s-.76-1.39-.76-2.25c0-.94.27-1.74.81-2.4.54-.66,1.39-1.21,2.54-1.64.77-.29,1.72-.52,2.86-.69s2.16-.28,3.08-.35c-.03-.53-.17-.96-.42-1.3-.25-.34-.67-.6-1.27-.78-.39-.13-.82-.22-1.3-.27-.47-.05-1.04-.08-1.69-.08-.6,0-1.1,0-1.52.03s-.87.04-1.36.06l.4-3.27c.2,0,.51-.02.94-.04.43-.02,1.04-.02,1.82-.02,1.65,0,3.03.14,4.12.42,1.1.28,2.02.75,2.78,1.4.69.6,1.2,1.32,1.52,2.17.32.85.48,1.98.48,3.37Zm-4.25,2.7v-1.09c0-.42,0-.85-.01-1.31-.28,0-.79.07-1.51.17-.72.1-1.37.28-1.93.52-.39.16-.75.4-1.08.73s-.49.74-.49,1.23c0,.55.14.98.43,1.3s.66.57,1.12.75c.33.12.71.21,1.13.26s.87.09,1.36.09c.13,0,.27,0,.44,0,.17,0,.34,0,.53,0,0-.13,0-.42,0-.89,0-.47,0-1.05,0-1.74Z"/><path class="cls-3" d="m228.19,312.82h-4.5c0-.36,0-1.59.02-3.7.01-2.1.02-4.67.02-7.68,0-1.32,0-2.83-.01-4.54s-.02-3.56-.03-5.55h4.5c-.02,1.88-.03,3.78-.04,5.68,0,1.9-.01,3.43-.01,4.59,0,1.58,0,3.74.03,6.47s.03,4.31.03,4.73Zm10.72-.23l-3.66,1.58c-1.88-2.47-3.46-4.44-4.72-5.9-1.26-1.46-2.05-2.43-2.36-2.91v-.03c.27-.4,1.07-1.42,2.38-3.07s2.49-3.24,3.52-4.77l4,1.52c-.96,1.28-1.91,2.52-2.85,3.72-.94,1.2-1.53,1.96-1.76,2.26h0c2.16,2.98,3.97,5.5,5.45,7.6Z"/><path class="cls-3" d="m255.32,312.82h-4.38v-1.42h-.01c-.7.38-1.58.78-2.63,1.2s-2.04.63-2.98.63c-1.43,0-2.53-.42-3.32-1.26s-1.18-1.99-1.18-3.46c0-.93,0-1.93.02-3.01.01-1.08.02-1.87.02-2.37,0-.91,0-1.95-.03-3.13-.02-1.18-.03-1.89-.03-2.15h4.5c0,.24,0,.93-.02,2.04-.01,1.12-.02,2.05-.02,2.8,0,.6,0,1.35.01,2.26s.01,1.57.01,1.99c0,.86.15,1.52.41,1.98.26.46.74.7,1.42.7.62,0,1.32-.16,2.07-.48.76-.32,1.31-.6,1.66-.84,0-.07,0-.56.01-1.48s.01-1.95.01-3.11c0-1,0-2.16-.03-3.48s-.03-2.12-.03-2.4h4.5c0,.25,0,.98-.02,2.19-.01,1.21-.02,2.75-.02,4.62,0,1.3,0,2.46.01,3.48,0,1.02.02,2.58.03,4.67Z"/><path class="cls-3" d="m270.6,301.2c-.8.24-1.7.55-2.7.92s-2.29.92-3.88,1.64c0,.24,0,.69,0,1.33,0,.64,0,1.3,0,1.96,0,1.04,0,2.19.03,3.47s.03,2.04.03,2.29h-4.5c0-.29,0-1.03.02-2.2.01-1.17.02-2.74.02-4.7,0-.94,0-2.12-.01-3.54s-.02-2.93-.03-4.51h4.39v2.15s.01.01.01.01c.93-.58,1.92-1.12,2.99-1.62s1.89-.84,2.49-1.02l1.14,3.81Z"/><path class="cls-3" d="m284.78,305.04c0,2.39,0,4.23,0,5.53,0,1.3,0,2.05,0,2.25-.16.02-.79.07-1.9.14-1.11.07-2.29.11-3.54.11-.82,0-1.76-.07-2.8-.21-1.05-.14-1.93-.36-2.63-.66-.9-.39-1.6-.91-2.11-1.54s-.76-1.39-.76-2.25c0-.94.27-1.74.81-2.4.54-.66,1.39-1.21,2.54-1.64.77-.29,1.72-.52,2.86-.69s2.16-.28,3.08-.35c-.03-.53-.17-.96-.42-1.3-.25-.34-.67-.6-1.27-.78-.39-.13-.82-.22-1.3-.27-.47-.05-1.04-.08-1.69-.08-.6,0-1.1,0-1.52.03s-.87.04-1.36.06l.4-3.27c.2,0,.51-.02.94-.04.43-.02,1.04-.02,1.82-.02,1.65,0,3.03.14,4.12.42,1.1.28,2.02.75,2.78,1.4.69.6,1.2,1.32,1.52,2.17.32.85.48,1.98.48,3.37Zm-4.25,2.7v-1.09c0-.42,0-.85-.01-1.31-.28,0-.79.07-1.51.17-.72.1-1.37.28-1.93.52-.39.16-.75.4-1.08.73s-.49.74-.49,1.23c0,.55.14.98.43,1.3s.66.57,1.12.75c.33.12.71.21,1.13.26s.87.09,1.36.09c.13,0,.27,0,.44,0,.17,0,.34,0,.53,0,0-.13,0-.42,0-.89,0-.47,0-1.05,0-1.74Z"/><path class="cls-3" d="m310,296.99c-.28,0-.94,0-1.96-.01s-2.08-.01-3.16-.01c-.65,0-1.38,0-2.17,0-.79,0-1.44,0-1.95,0,0,.72,0,1.54-.01,2.45,0,.91-.01,1.73-.01,2.44.33,0,.87,0,1.63,0s1.39,0,1.92,0c1.15,0,2.29,0,3.43-.01s1.83-.01,2.09-.01v3.16c-.28,0-1.07,0-2.37-.01s-2.38-.01-3.26-.01c-.46,0-1.04,0-1.74,0-.7,0-1.22,0-1.54,0,0,1.59,0,3.04.01,4.36,0,1.31.02,2.47.03,3.46h-4.85c0-.68.02-1.74.04-3.18.02-1.44.02-3.71.02-6.81,0-1.13,0-2.57-.01-4.3s-.02-3.5-.04-5.3c.65,0,1.56,0,2.73,0,1.17,0,2.45,0,3.85,0,1.57,0,3.11,0,4.61,0,1.5,0,2.41,0,2.72,0v3.75Z"/><path class="cls-3" d="m326.88,305.34h-10.17c0,.75.22,1.45.64,2.09.41.64,1.05,1.16,1.9,1.56.6.26,1.22.45,1.88.56.66.11,1.38.17,2.17.17.62,0,1.17,0,1.63-.03s.8-.03,1.01-.04l-.45,3.21c-.21.02-.55.04-1.03.07-.48.02-1.04.04-1.66.04-1.7,0-3.21-.19-4.53-.56-1.32-.38-2.45-.95-3.38-1.71-.78-.64-1.41-1.44-1.89-2.39s-.72-1.99-.72-3.13.18-2.14.53-3.03.92-1.74,1.71-2.55c.65-.67,1.46-1.19,2.43-1.55s1.95-.54,2.94-.54c1.05,0,2,.15,2.83.45.83.3,1.54.75,2.14,1.34.7.7,1.22,1.55,1.54,2.54s.48,2.17.48,3.52Zm-4.2-1.96c-.09-.96-.38-1.72-.89-2.29s-1.19-.85-2.07-.85-1.57.28-2.12.84-.92,1.33-1.08,2.29h6.17Z"/><path class="cls-3" d="m340.25,308.31c0,.8-.22,1.5-.67,2.09-.45.6-1.01,1.08-1.69,1.45-.71.39-1.59.68-2.64.86s-2.1.28-3.16.28c-.71,0-1.35,0-1.93-.03-.57-.03-.96-.04-1.16-.04l-.35-3.22c.22,0,.6.03,1.11.05s1.08.04,1.7.04c.32,0,.69-.02,1.1-.05.41-.03.8-.1,1.16-.21.54-.15.89-.33,1.06-.55.17-.22.26-.48.26-.77,0-.27-.1-.5-.29-.69-.19-.19-.49-.39-.9-.62-.33-.2-.76-.41-1.29-.64s-1-.48-1.42-.73c-.67-.41-1.17-.9-1.5-1.46s-.49-1.18-.49-1.87c0-.74.21-1.41.63-2.01.42-.6,1.06-1.11,1.92-1.53.7-.34,1.53-.58,2.48-.72.95-.14,1.85-.21,2.69-.23.7,0,1.29,0,1.76,0,.47.01.78.02.94.02l.38,3.24c-.15,0-.42-.01-.83-.04-.41-.02-.91-.04-1.52-.04-.42,0-.82.03-1.19.08-.37.05-.7.13-1,.23-.37.13-.65.29-.83.49s-.27.42-.27.65c0,.28.11.53.34.73.23.21.53.4.9.59.36.2.81.42,1.36.67.54.25.97.47,1.28.66.67.41,1.18.88,1.53,1.41.35.53.52,1.16.52,1.9Z"/><path class="cls-3" d="m353.48,309.72l-.42,3.21c-.14,0-.37.02-.69.03s-.74.01-1.26.01c-2.37,0-4.16-.45-5.37-1.36-1.21-.9-1.81-2.25-1.81-4.04,0-1.14,0-2.2.01-3.17,0-.97.01-2.09.01-3.35h-2.43v-3.19h2.55v-3.91h4.32v3.91h5.02v3.19h-5.02c0,.21,0,.64-.01,1.28s-.01,1.16-.01,1.57c0,.32,0,.72,0,1.18,0,.46,0,.95,0,1.46,0,1.06.3,1.86.89,2.38s1.69.78,3.3.78h.91Z"/><path class="cls-3" d="m360.79,295.54h-4.64v-3.46h4.64v3.46Zm-.07,17.29h-4.5c0-.47,0-1.46.02-2.99.01-1.52.02-2.95.02-4.28,0-1.12,0-2.3,0-3.53s-.02-2.62-.04-4.16h4.5c0,1.4-.02,2.64-.04,3.74-.01,1.1-.02,2.35-.02,3.74,0,2.23,0,3.92.03,5.08.02,1.16.03,1.96.03,2.39Z"/><path class="cls-3" d="m379.41,298.71c-1.37,3.16-2.64,6.11-3.82,8.87-1.18,2.76-1.91,4.5-2.2,5.25h-4.22c-.32-.83-1.05-2.55-2.18-5.17-1.13-2.61-2.42-5.57-3.85-8.86l4.48-1.25,3.76,9.9h.07l3.66-9.87,4.29,1.14Z"/><path class="cls-3" d="m394.28,305.04c0,2.39,0,4.23,0,5.53,0,1.3,0,2.05,0,2.25-.16.02-.79.07-1.9.14-1.11.07-2.29.11-3.54.11-.82,0-1.76-.07-2.8-.21-1.05-.14-1.93-.36-2.63-.66-.9-.39-1.6-.91-2.11-1.54s-.76-1.39-.76-2.25c0-.94.27-1.74.81-2.4.54-.66,1.39-1.21,2.54-1.64.77-.29,1.72-.52,2.86-.69s2.16-.28,3.08-.35c-.03-.53-.17-.96-.42-1.3-.25-.34-.67-.6-1.27-.78-.39-.13-.82-.22-1.3-.27-.47-.05-1.04-.08-1.69-.08-.6,0-1.1,0-1.52.03s-.87.04-1.36.06l.4-3.27c.2,0,.51-.02.94-.04.43-.02,1.04-.02,1.82-.02,1.65,0,3.03.14,4.12.42,1.1.28,2.02.75,2.78,1.4.69.6,1.2,1.32,1.52,2.17.32.85.48,1.98.48,3.37Zm-4.25,2.7v-1.09c0-.42,0-.85-.01-1.31-.28,0-.79.07-1.51.17-.72.1-1.37.28-1.93.52-.39.16-.75.4-1.08.73s-.49.74-.49,1.23c0,.55.14.98.43,1.3s.66.57,1.12.75c.33.12.71.21,1.13.26s.87.09,1.36.09c.13,0,.27,0,.44,0,.17,0,.34,0,.53,0,0-.13,0-.42,0-.89,0-.47,0-1.05,0-1.74Z"/><path class="cls-3" d="m402.88,312.82h-4.5c0-.68,0-2.12.02-4.32.01-2.2.02-4.47.02-6.83,0-1.35,0-2.91,0-4.67s-.02-3.65-.04-5.65h4.5c0,1.63-.02,3.34-.03,5.13s-.01,3.46-.01,5.02c0,2.54,0,4.78.02,6.71.01,1.93.02,3.47.02,4.61Z"/></svg>