<?xml version="1.0" encoding="UTF-8"?><svg id="Layer_1" xmlns="http://www.w3.org/2000/svg" width="251.16" height="188" viewBox="0 0 251.16 188"><defs><style>.cls-1{fill:#b43830;}.cls-2{fill:#e2d5c3;}</style></defs><path class="cls-1" d="m0,170.98c18.5,10.82,40.02,17.02,63,17.02,69.04,0,125-55.96,125-125,0-22.98-6.21-44.5-17.02-63H0v170.98Z"/><path class="cls-2" d="m30.77,54.38c-.31-.29-1.09-.4-2.32-.34-1.24.06-2.01.1-2.32.13-1.08.14-2.2.4-3.37.76-1.16.36-2.18.89-3.04,1.58.62.36,1.79.76,3.49,1.21,1.7.44,2.7.71,2.99.81,2.04.74,3.98,2,5.81,3.78,1.84,1.78,2.32,3.95,1.46,6.52-1.2,3.46-3.53,5.19-6.98,5.2s-6.47-.63-9.04-1.93h.04c-.19-.07-.36-.17-.5-.29.34-.05.53-.07.58-.07,2.11.43,4.08.62,5.9.56,1.82-.06,3.67-.79,5.54-2.18,2.38-1.75,3.08-3.23,2.12-4.43-.96-1.2-2.49-2.24-4.59-3.13-2.1-.89-4.24-1.67-6.43-2.36-2.18-.68-3.32-1.39-3.42-2.11-.26-1.61.22-3.02,1.44-4.23s2.74-2.15,4.55-2.83c1.81-.67,3.68-1.03,5.62-1.06,1.93-.04,3.47.32,4.63,1.06,1.1.72,1.54,1.66,1.31,2.83s-.53,2.31-.92,3.44c-.46-.24-1.04-.64-1.76-1.19-.72-.55-.98-1.13-.79-1.73Zm-11.27,1.94s-.04-.08-.04-.11c0,.07.01.11.04.11Zm11.3-1.94s.01.08.04.11c-.02-.05-.04-.08-.04-.11Z"/><path class="cls-2" d="m47.83,56.54c-.34.41-.65.79-.95,1.15-.3.36-.57.71-.81,1.04l1.69-.58c.38.82.84,2.57,1.37,5.26.91,0,1.49.02,1.73.07l1.62.5c-.98.41-1.47.61-1.46.61s-.53.16-1.64.47c.36,1.8.59,3.58.7,5.33s.05,2.95-.16,3.6l-.47.68c-.43-.5-.7-.88-.79-1.12-.1-.24-.2-.65-.32-1.22-.29-.7-.61-1.63-.95-2.81-.35-1.18-.7-2.38-1.06-3.6-1.1.34-2.2.71-3.29,1.13-1.09.42-1.96.86-2.61,1.31-.58,1.46-1.12,2.99-1.62,4.57-.31.86-.47,1.31-.47,1.33s-.25.46-.76,1.3c-.26-.84-.41-1.31-.45-1.42s-.04-.59-.02-1.46c0-1.73.23-3.54.68-5.44l-1.33-.79c.86-.5,1.49-.86,1.87-1.08,1.08-3.62,2.94-7.24,5.58-10.84l3.92,1.98Zm-2.23,7.2c-.48-1.25-.88-2.22-1.19-2.92-.74,1.08-1.44,2.22-2.09,3.42,1.06-.17,2.15-.34,3.28-.5Z"/><path class="cls-2" d="m56.87,55.38c-.5,1.94-.84,4.36-1.01,7.24.74-1.22,1.99-2.69,3.74-4.39,1.75-1.7,3.08-3,4-3.89l2.48,2.56c-1.54,1.06-3.02,2.11-4.46,3.15s-2.9,2.11-4.39,3.19c.07.07.28.3.61.68,1.32,1.56,2.5,2.89,3.53,3.98,1.03,1.09,2.42,2.24,4.18,3.44l-2.38,2.56c-1.39-1.25-2.69-2.7-3.91-4.36-1.21-1.66-2.08-3.36-2.61-5.11-.05-.24-.1-.46-.14-.65-.24.17-.49.31-.76.43-.1,1.37-.19,2.72-.29,4.07-.1,1.34-.2,2.66-.32,3.96-.1.6-.16.92-.18.97-.02.05-.16.35-.4.9-.26-.53-.41-.82-.45-.86-.04-.05-.09-.38-.16-1.01-.43-2.28-.74-5.2-.94-8.77s-.12-6.49.22-8.77l3.64.68Z"/><path class="cls-2" d="m73.03,54.99c-.58,1.9-1.05,4.78-1.42,8.66-.37,3.88.16,6.61,1.6,8.19.77.89,1.5,1,2.2.32.7-.67,1.34-1.39,1.94-2.16.22-.34.42-.65.61-.94-.6-2.3-.82-4.81-.65-7.51.17-2.7.52-4.67,1.04-5.92l3.02,1.4c-.5.91-.88,2.12-1.12,3.62-.24,1.5-.36,3.07-.36,4.7.02-.05.05-.08.07-.11l-.04,1.15v.04c.05,3.26.47,5.82,1.26,7.67-1.22-.53-2.16-1.7-2.81-3.53-.7,1.2-1.67,2.19-2.93,2.97-1.26.78-2.57.82-3.94.13-1.27-.65-2.14-1.86-2.59-3.64-.46-1.78-.67-3.71-.65-5.81.02-2.1.2-4.16.54-6.17.34-2.02.65-3.6.94-4.75l3.28,1.69Z"/><path class="cls-2" d="m90.92,65.25c.55,1.61,1.36,3.23,2.43,4.86,1.07,1.63,2.02,3.17,2.86,4.61l-1.19-.14c-1.22-.48-2.71-1.83-4.46-4.05s-2.89-3.95-3.42-5.2c-.02-.17.62-.41,1.94-.74,1.32-.32,2.21-.64,2.66-.95,1.22-.7,1.86-1.61,1.91-2.75.05-1.14-.33-2.11-1.13-2.92s-1.94-1.27-3.42-1.4c-1.48-.13-3.14.45-4.99,1.75l-2.16-2.41c1.68-.89,3.46-1.54,5.33-1.94,1.87-.41,3.77-.22,5.69.58,3.1,1.25,4.45,3.19,4.07,5.81-.38,2.63-2.42,4.27-6.12,4.91Zm-3.67-7.06c.43,2.47.34,5.28-.27,8.42-.61,3.14-1,5.23-1.17,6.26-.17,1.03-.35,1.67-.54,1.91l-.76-.72c-1.03-1.44-1.29-3.86-.77-7.25.52-3.4.51-6.07-.02-8.01l3.53-.61Z"/><path class="cls-2" d="m110.51,56.54c-.34.41-.65.79-.95,1.15-.3.36-.57.71-.81,1.04l1.69-.58c.38.82.84,2.57,1.37,5.26.91,0,1.49.02,1.73.07l1.62.5c-.98.41-1.47.61-1.46.61s-.53.16-1.64.47c.36,1.8.59,3.58.7,5.33s.05,2.95-.16,3.6l-.47.68c-.43-.5-.7-.88-.79-1.12-.1-.24-.2-.65-.32-1.22-.29-.7-.61-1.63-.95-2.81-.35-1.18-.7-2.38-1.06-3.6-1.1.34-2.2.71-3.29,1.13-1.09.42-1.96.86-2.61,1.31-.58,1.46-1.12,2.99-1.62,4.57-.31.86-.47,1.31-.47,1.33s-.25.46-.76,1.3c-.26-.84-.41-1.31-.45-1.42s-.04-.59-.02-1.46c0-1.73.23-3.54.68-5.44l-1.33-.79c.86-.5,1.49-.86,1.87-1.08,1.08-3.62,2.94-7.24,5.58-10.84l3.92,1.98Zm-2.23,7.2c-.48-1.25-.88-2.22-1.19-2.92-.74,1.08-1.44,2.22-2.09,3.42,1.06-.17,2.15-.34,3.28-.5Z"/><path class="cls-2" d="m152.09,54.2c-1.42.55-3.54,1.07-6.37,1.55-2.83.48-5.33.89-7.49,1.22l2.48,1.3c-.58.77-1.02,1.61-1.33,2.52,2.18-.62,4.38-1.06,6.59-1.3v3.38c-2.11-.02-4.55.2-7.31.68-.22,1.54-.29,3.05-.22,4.54.07,1.49.11,2.66.11,3.53v2.88l-.72-.79c-.46-.65-.9-1.75-1.33-3.29-.43-1.55-.72-2.72-.86-3.51-.24-1.22-.36-2.11-.36-2.66-.5.12-1.14.24-1.91.36-.6.1-.93.14-.99.14s-.39-.01-.99-.04c.31-.46.49-.7.52-.74.04-.04.31-.19.81-.45.62-.36,1.45-.78,2.48-1.26.07-1.82.52-3.48,1.33-4.97-.05,0-.14.01-.29.04-.41.07-1.27.25-2.57.54-1.31.29-2.09.4-2.36.32.05-.6,1.06-1.27,3.04-2,1.98-.73,3.31-1.21,3.98-1.42,1.1-.36,3.08-.94,5.92-1.73,2.84-.79,4.64-1.37,5.38-1.73l2.45,2.88Z"/><path class="cls-2" d="m165.48,56.86c-4.3-.12-8.57.46-12.82,1.73l.25.61c.1.5.17,1.21.23,2.11.06.9.08,1.81.05,2.72,2.14-1.2,4.66-2.05,7.56-2.56l-.36,3.64c-1.73.02-3.09.17-4.09.43-1,.26-2.08.59-3.26.97-.05.24-.07.47-.07.68s-.01.4-.04.54c-.02.34-.13,1.19-.32,2.56-.19,1.37-.12,2.08.22,2.12.91.12,2.58-.34,5-1.39,2.42-1.04,4.3-1.73,5.62-2.07l.29,3.56c-1.75.34-4.42,1.13-8.01,2.39-3.59,1.26-5.63.7-6.14-1.67-.14-.41-.09-1.2.16-2.38.25-1.18.5-2.35.74-3.53-.46.12-1,.17-1.62.14.31-.53.54-.85.68-.97.14-.12.5-.37,1.08-.76.14-.12.25-.2.32-.25.02-.12.05-.24.07-.36.02-.12.04-.24.04-.36.19-1.03.37-2.06.52-3.08.16-1.02.45-2.03.88-3.04-1.06.34-1.7.53-1.94.58-.77.31-1.14.47-1.12.47s-.37.06-1.19.18c.41-.5.64-.8.7-.9.06-.1.39-.35.99-.76,2.28-1.61,4.88-2.79,7.81-3.55,2.93-.76,5.72-1.23,8.39-1.42l-.65,3.6Z"/><path class="cls-2" d="m179.41,57.54c-.26-.24-.91-.34-1.94-.29-1.03.05-1.68.08-1.94.11-.91.12-1.85.33-2.83.63-.97.3-1.82.74-2.54,1.31.53.31,1.51.65,2.93,1.03,1.43.37,2.26.59,2.5.67,1.7.62,3.32,1.69,4.86,3.19,1.54,1.5,1.94,3.32,1.22,5.45-1.01,2.9-2.96,4.36-5.85,4.37s-5.42-.52-7.58-1.6h.04c-.17-.07-.31-.16-.43-.25.29-.05.44-.07.47-.07,1.78.36,3.43.52,4.97.47,1.54-.05,3.08-.65,4.64-1.8,1.99-1.49,2.59-2.74,1.78-3.74-.8-1.01-2.09-1.88-3.85-2.63-1.76-.74-3.56-1.4-5.38-1.98-1.82-.58-2.78-1.16-2.88-1.76-.22-1.34.19-2.53,1.22-3.55,1.03-1.02,2.3-1.81,3.82-2.38,1.51-.56,3.08-.86,4.7-.88s2.92.28,3.91.9c.91.6,1.27,1.39,1.08,2.36-.19.97-.44,1.94-.76,2.9-.38-.22-.88-.55-1.48-1.01-.6-.46-.83-.94-.68-1.44Zm-9.43,1.62s-.04-.05-.04-.07c0,.05.01.07.04.07Zm9.47-1.62s.01.07.04.07c-.02-.02-.04-.05-.04-.07Z"/><path class="cls-2" d="m196.98,56.5c-1.3.07-2.57.25-3.83.52-1.26.28-2.51.56-3.76.85.46.62.71,1.01.76,1.15-.46.91-.85,3.28-1.17,7.11-.32,3.83-.47,6.31-.45,7.43,0,.5,0,.73,0,.68s-.01.12-.04.5c-.82-.67-1.3-2.59-1.44-5.74-.14-3.16-.2-5.35-.18-6.57,0-.58.01-1.21.04-1.91.02-.7.11-1.37.25-2.02-.6.19-1.52.46-2.77.79-.58.14-.88.22-.9.22h-.9c.43-.43.67-.68.72-.74.05-.06.32-.25.83-.56,1.73-1.08,3.8-2.09,6.21-3.02,2.41-.94,4.57-1.58,6.46-1.94l.18,3.24Z"/><path class="cls-2" d="m199.32,54.95l4.32.58c-.55,2.59-.99,5.11-1.31,7.54-.32,2.44-.67,4.95-1.03,7.54-.14.82-.26,1.46-.34,1.94-.08.48-.32,1.07-.7,1.76-.26-.48-.41-.76-.43-.83-.02-.07-.1-.38-.22-.94-.48-2.57-.71-5.48-.68-8.75.02-3.26.16-6.22.4-8.86Z"/><path class="cls-2" d="m209.36,55.06c-1.03,1.94-1.09,4.68-.16,8.21.92,3.53,1.95,6.25,3.08,8.17,1.85-2.52,3.29-5.15,4.32-7.88,1.03-2.74,1.87-5.34,2.52-7.81.17.72.25,1.29.25,1.71s-.01,1-.04,1.75c-.14,2.57-.69,5.25-1.64,8.05-.95,2.8-2.13,5.26-3.55,7.4-1.8-.86-3.46-2.51-4.99-4.95-1.52-2.44-2.59-5.33-3.19-8.69-.26-1.39-.39-2.71-.38-3.96.01-1.25.29-2.53.85-3.85l2.92,1.87Z"/><path class="cls-2" d="m232.58,56.54c-.34.41-.65.79-.95,1.15-.3.36-.57.71-.81,1.04l1.69-.58c.38.82.84,2.57,1.37,5.26.91,0,1.49.02,1.73.07l1.62.5c-.98.41-1.47.61-1.46.61s-.53.16-1.64.47c.36,1.8.59,3.58.7,5.33s.05,2.95-.16,3.6l-.47.68c-.43-.5-.7-.88-.79-1.12-.1-.24-.2-.65-.32-1.22-.29-.7-.61-1.63-.95-2.81-.35-1.18-.7-2.38-1.06-3.6-1.1.34-2.2.71-3.29,1.13-1.09.42-1.96.86-2.61,1.31-.58,1.46-1.12,2.99-1.62,4.57-.31.86-.47,1.31-.47,1.33s-.25.46-.76,1.3c-.26-.84-.41-1.31-.45-1.42s-.04-.59-.02-1.46c0-1.73.23-3.54.68-5.44l-1.33-.79c.86-.5,1.49-.86,1.87-1.08,1.08-3.62,2.94-7.24,5.58-10.84l3.92,1.98Zm-2.23,7.2c-.48-1.25-.88-2.22-1.19-2.92-.74,1.08-1.44,2.22-2.09,3.42,1.06-.17,2.15-.34,3.28-.5Z"/><path class="cls-2" d="m243.56,56.07c-.36.79-.76,2.24-1.21,4.36-.44,2.11-.82,4.34-1.13,6.7-.31,2.35-.47,4.53-.47,6.53s.26,3.26.79,3.76c.94.98,2.32,1.11,4.14.38,1.82-.73,3.31-1.27,4.46-1.6l1.01-.22-.72.72c-.29.24-.97.65-2.05,1.24-1.08.59-1.78.95-2.09,1.1-1.39.62-2.81.88-4.27.77-1.45-.11-2.5-.93-3.15-2.47-.46-1.01-.73-2.56-.83-4.66-.1-2.1-.07-4.31.07-6.62.14-2.32.39-4.54.74-6.68.35-2.14.74-3.76,1.17-4.86l3.53,1.55Z"/></svg>